PathFileType	4	(X/Y/Z)	C:/Users/beibeiliu/ov580/test_trc\sequence.7_training_dense_right.trc
DataRate	CameraRate	NumFrames	NumMarkers	Units	OrigDataRate	OrigDataStartFrame	OrigNumFrames
120	120	10	19	mm	120	117	310
Frame#	Time	ThumbCMC			ThumbMCP			ThumbIP			ThumbTip			IndexMCP			IndexPIP			IndexTip			MiddleMCP			MiddlePIP			MiddleTip			RingMCP			RingPIP			RingTip			PinkyMCP			PinkyPIP			PinkyTip			BackHand1			BackHand2			BackHand3	
		X0	Y0	Z0	X1	Y1	Z1	X2	Y2	Z2	X3	Y3	Z3	X4	Y4	Z4	X5	Y5	Z5	X6	Y6	Z6	X7	Y7	Z7	X8	Y8	Z8	X9	Y9	Z9	X10	Y10	Z10	X11	Y11	Z11	X12	Y12	Z12	X13	Y13	Z13	X14	Y14	Z14	X15	Y15	Z15	X16	Y16	Z16	X17	Y17	Z17	X18	Y18	Z18	
116	0.966667	161.779	-23.8095	31.5355	145.847	-31.3	9.15655	131.105	-34.5496	-8.74436	123.668	-37.7591	-25.5586	166.48	-12.9981	-36.6582	163.668	-16.6628	-56.9879	158.316	-23.0042	-83.2261	194.508	-18.7955	-40.4754	195.998	-22.5646	-62.4512	193.216	-26.8218	-92.3715	209.685	-25.7507	-34.3456	214.096	-28.9227	-51.6581	215.171	-31.7182	-75.2955	228.397	-36.8191	-16.5192	236.554	-39.9111	-34.8658	242.411	-36.6145	-48.2098	209.986	-19.1542	10.9793	209.362	-14.6512	37.7576	182.54	-7.47293	21.9067	
117	0.975	161.959	-22.7956	29.0091	143.366	-31.5816	13.6218	133.364	-33.7708	-10.822	124.623	-38.3283	-22.6947	169.15	-14.5916	-37.2584	166.52	-18.1016	-61.2329	161.182	-23.1832	-81.5966	195.449	-18.8385	-42.3477	193.305	-21.1381	-64.1895	197.472	-27.8319	-90.4262	213.125	-27.0207	-34.4618	214.527	-29.3156	-52.8672	219.254	-32.1219	-76.131	227.154	-37.4646	-16.8595	237.988	-39.9584	-35.5695	247.062	-37.5151	-49.7336	208.439	-16.2588	12.0969	213.683	-14.4459	37.2178	184.967	-5.74912	19.8361	
118	0.983333	161.105	-23.1807	29.3625	141.244	-30.6299	12.0534	134.892	-33.0031	-10.289	125.98	-37.1928	-24.8142	172.056	-14.8466	-34.5382	165.783	-17.6427	-57.5283	163.141	-23.7179	-79.9173	196.299	-19.1919	-42.2464	197.443	-23.7573	-66.135	199.225	-28.7141	-92.3751	210.884	-27.5074	-32.6649	213.921	-29.0821	-56.7957	219.072	-33.1415	-75.2264	231.399	-38.6722	-19.4633	237.753	-41.5036	-34.1088	245.652	-37.2641	-48.4197	210.713	-18.7239	13.6125	208.931	-15.3477	34.3884	189.596	-8.4486	21.995	
119	0.991667	164.686	-23.981	32.031	143.977	-30.6657	14.0623	136.831	-33.289	-6.45555	123.073	-36.4762	-27.3342	170.498	-13.7346	-34.6621	166.821	-17.5405	-56.6272	164.178	-24.2293	-81.2265	194.712	-19.1259	-41.8085	194.26	-22.3132	-66.2111	198.375	-27.5183	-89.8092	216.115	-29.5946	-30.1409	218.493	-30.307	-55.9586	221.071	-32.967	-73.3453	231.252	-39.2867	-18.6818	238.951	-40.9887	-35.8021	244.892	-37.112	-49.2668	214.04	-18.6701	10.3411	213.121	-16.0206	34.6599	186.588	-7.80851	19.1498	
120	1	165.638	-23.8266	33.0608	143.814	-29.272	13.1837	134.617	-32.4434	-6.89261	125.022	-37.003	-24.5162	169.861	-13.3687	-37.0397	166.69	-17.1434	-59.2338	164.677	-22.6432	-79.5172	198.306	-19.0035	-39.585	197.647	-21.4066	-61.8743	199.386	-25.5768	-86.8055	215.886	-27.6142	-30.6216	216.289	-28.9806	-53.3724	221.365	-32.6673	-76.1364	230.645	-38.5459	-17.0897	239.149	-41.1128	-33.4754	243.806	-37.883	-47.4957	215.265	-18.1698	14.4743	215.734	-16.6122	37.5593	191.534	-7.00002	19.4982	
121	1.00833	163.222	-21.2075	30.8937	149.594	-29.6098	10.885	138.511	-33.3911	-7.78212	130.057	-36.1504	-26.9249	173.778	-13.0053	-33.4934	169.518	-17.5551	-59.6995	164.056	-20.8053	-81.1399	199.044	-18.5614	-42.7798	197.148	-21.321	-62.968	199.78	-27.2357	-90.6867	213.7	-25.6886	-34.6413	216.923	-29.2685	-56.2396	222.689	-33.3298	-73.6223	228.687	-37.941	-15.5061	236.062	-39.3966	-30.401	247.404	-35.9389	-50.8411	215.561	-17.7224	9.87651	215.483	-16.3976	36.3519	187.933	-6.52613	24.3101	
122	1.01667	162.252	-20.996	31.7322	148.713	-29.1339	9.0337	137.852	-31.4237	-9.28533	125.313	-35.2765	-24.3614	175.984	-13.959	-34.6106	171.369	-17.2063	-59.493	169.553	-22.1265	-78.3477	198.966	-19.2235	-38.0849	195.614	-20.7651	-66.2308	201.9	-27.0359	-91.9563	218.367	-28.3705	-34.1722	221.733	-31.2351	-55.4279	223.493	-34.2033	-76.0356	233.345	-37.7137	-18.4385	240.85	-39.978	-34.0592	250.309	-38.0892	-49.9931	213.842	-18.6446	13.2437	215.465	-15.8218	34.5273	190.171	-5.31181	21.5255	
123	1.025	167.181	-22.1512	29.3563	149.186	-28.6257	11.7401	134.923	-31.4673	-8.69695	126.752	-34.7481	-25.4238	175.954	-13.0531	-33.0114	170.806	-16.7587	-60.584	165.012	-21.0296	-82.6972	199.802	-18.2362	-39.9875	197.727	-20.7995	-64.7087	198.943	-25.111	-88.6066	218.978	-28.2736	-31.7749	222.416	-29.9299	-54.4163	223.865	-33.9167	-78.0731	233.724	-38.9932	-14.1134	240.554	-39.4708	-34.6488	246.805	-37.3794	-49.242	217.098	-19.4547	13.7263	216.212	-13.6801	35.5524	188.772	-6.05597	21.3162	
124	1.03333	162.829	-20.8343	32.0932	146.769	-28.3742	12.8987	138.154	-31.701	-7.76751	128.248	-35.687	-29.3202	172.795	-11.9448	-35.4821	173.022	-15.1539	-57.486	166.867	-20.8565	-78.0268	198.426	-17.5323	-40.3483	201.604	-21.5361	-64.6371	199.565	-25.0671	-90.2304	215.836	-25.4082	-35.206	221.933	-29.5072	-54.9347	222.819	-32.7413	-75.2429	233.205	-36.7121	-19.9123	238.859	-39.1425	-33.7398	252.186	-36.7034	-51.0928	216.434	-18.0568	8.45032	213.54	-13.6332	37.9458	192.616	-5.84257	18.8274	
125	1.04167	165.405	-21.8949	31.7895	150.948	-29.8814	11.5643	136.582	-31.2861	-9.50852	130.309	-35.9276	-29.1041	176.771	-13.5235	-37.086	174.53	-17.3914	-61.1369	169.494	-22.1034	-81.4063	197.935	-16.9914	-41.933	202.293	-21.2403	-63.9824	201.405	-25.1353	-90.9486	219.151	-26.3982	-35.4267	220.825	-28.0395	-57.5093	221.661	-32.0184	-74.2123	236.294	-38.2757	-19.8791	240.531	-40.0469	-32.9595	251.361	-36.8295	-48.497	214.11	-16.9294	12.2014	216.14	-13.2906	34.2774	191.266	-7.52577	18.2118	
